#!OML:ASF E:\basketball\basketball\Project 1\Capture day 1\Session 1\Subject.ASF
:FULLY-SPECIFIED
:DEGREES
136
root -18.4869 14.7724 -19.1767 187.219 9.74793 191.098
lowerback 24.1337 2.5553 0.747419
upperback 12.8761 6.68956 3.73861
thorax 0.42869 4.48521 2.05563
lowerneck -6.81406 -7.72609 -2.33539
upperneck -15.5682 -8.06739 9.26273
head -3.39812 -3.51297 3.50985
rclavicle 2.10712e-014 -1.70955e-014
rhumerus 0.986179 -29.4684 -73.7467
rradius 42.1635
rwrist -8.61966
rhand -30.3453 17.3036
rfingers 7.12502
rthumb -3.65088 -12.6449
lclavicle 2.10712e-014 -1.70955e-014
lhumerus -74.5308 -31.1209 117.765
lradius 35.3369
lwrist 91.9956
lhand -18.2417 381.234
lfingers 7.12502
lthumb 8.03702 -308.939
rfemur -14.0461 -10.7606 17.1317
rtibia 67.4129
rfoot 9.52238 15.1201
rtoes 28.0115
lfemur -55.3709 12.0432 -21.1744
ltibia 55.8277
lfoot 13.8236 22.1713
ltoes 49.2919
137
root -18.4165 14.7822 -19.646 186.874 9.21612 191.533
lowerback 23.5983 2.39578 0.429042
upperback 12.9735 6.40597 3.73135
thorax 0.776314 4.332 2.34615
lowerneck -6.04912 -7.52663 -1.7796
upperneck -16.1252 -7.76359 9.20134
head -3.78286 -3.40462 3.4582
rclavicle 2.06985e-014 9.07949e-014
rhumerus -1.97153 -28.4747 -72.3768
rradius 45.6688
rwrist -11.709
rhand -29.9411 17.1576
rfingers 7.12502
rthumb -3.26054 -12.7972
lclavicle 2.06985e-014 9.07949e-014
lhumerus -79.2454 -32.6362 123.069
lradius 38.3628
lwrist 102.121
lhand -22.5817 378.737
lfingers 7.12502
lthumb 3.84703 -311.318
rfemur -11.2802 -9.7817 17.2715
rtibia 65.7487
rfoot 8.47677 14.2546
rtoes 20.2449
lfemur -54.7503 12.9262 -21.7082
ltibia 49.5496
lfoot 17.6226 19.6795
ltoes 51.2285
138
root -18.3522 14.7695 -20.118 186.454 8.74864 191.807
lowerback 23.0136 2.16545 -0.109694
upperback 13.0891 5.97975 3.70187
thorax 1.16569 4.09092 2.7702
lowerneck -5.26144 -7.16482 -1.98834
upperneck -16.614 -7.17909 9.87254
head -3.62373 -3.19634 3.40121
rclavicle -2.6339e-014 -1.03368e-014
rhumerus -4.68952 -27.2409 -71.1698
rradius 49.0235
rwrist -14.4279
rhand -29.834 17.1105
rfingers 7.12502
rthumb -3.15711 -12.8459
lclavicle -2.6339e-014 -1.03368e-014
lhumerus -84.0301 -33.8412 129.008
lradius 41.0004
lwrist 112.104
lhand -25.8847 375.296
lfingers 7.12502
lthumb 0.657125 -314.725
rfemur -8.53432 -9.01819 17.3391
rtibia 64.0377
rfoot 5.51099 11.3026
rtoes 10.9558
lfemur -54.2111 14.2428 -22.7635
ltibia 43.963
lfoot 20.3067 17.2937
ltoes 51.6135
139
root -18.294 14.7341 -20.5944 186.023 8.13206 192.267
lowerback 22.4432 1.88454 -0.106338
upperback 13.1369 5.59007 3.63563
thorax 1.52164 3.89471 2.83148
lowerneck -4.38742 -6.77545 -1.81418
upperneck -16.8031 -6.63377 10.0506
head -3.85388 -2.98363 3.4593
rclavicle -1.68967e-014 -2.00773e-014
rhumerus -7.32905 -26.7856 -70.1086
rradius 52.0765
rwrist -16.8154
rhand -29.6019 17.1655
rfingers 7.12502
rthumb -2.933 -12.7941
lclavicle -1.68967e-014 -2.00773e-014
lhumerus -89.2058 -35.0734 136.079
lradius 42.1149
lwrist 119.67
lhand -27.3889 371.571
lfingers 7.12502
lthumb -0.795672 -318.451
rfemur -5.80553 -8.45873 17.7335
rtibia 62.2806
rfoot 2.48735 6.23964
rtoes -0.938064
lfemur -53.9035 15.8538 -24.0785
ltibia 39.3931
lfoot 22.258 15.173
ltoes 51.3622
140
root -18.2427 14.684 -21.0677 185.758 7.5576 193.137
lowerback 21.7774 1.58779 0.533764
upperback 13.0733 5.26453 3.62761
thorax 1.83432 3.75365 2.57658
lowerneck -3.54012 -6.3829 -1.43137
upperneck -16.8903 -6.12857 9.93372
head -4.06974 -2.79363 3.38632
rclavicle -2.34566e-014 4.6118e-014
rhumerus -10.2778 -26.6736 -68.9878
rradius 55.5075
rwrist -19.1074
rhand -29.3452 17.2529
rfingers 7.12502
rthumb -2.68508 -12.71
lclavicle -2.34566e-014 4.6118e-014
lhumerus -95.0858 -36.0432 144.883
lradius 42.1105
lwrist 126.352
lhand -27.8022 367.726
lfingers 7.12502
lthumb -1.19487 -322.298
rfemur -3.34466 -7.45077 18.7021
rtibia 60.6791
rfoot 0.755276 1.06552
rtoes -11.7801
lfemur -54.1063 17.7483 -25.3417
ltibia 36.1687
lfoot 23.0154 14.9826
ltoes 49.0265
